<?xml version="1.0" encoding="UTF-8" standalone="no"?>
<svg
   xmlns:dc="http://purl.org/dc/elements/1.1/"
   xmlns:cc="http://creativecommons.org/ns#"
   xmlns:rdf="http://www.w3.org/1999/02/22-rdf-syntax-ns#"
   xmlns:svg="http://www.w3.org/2000/svg"
   xmlns="http://www.w3.org/2000/svg"
   viewBox="0 0 1000 343.75"
   height="343.75"
   width="1000"
   xml:space="preserve"
   version="1.1"
   id="svg2"><metadata
     id="metadata8"><rdf:RDF><cc:Work
         rdf:about=""><dc:format>image/svg+xml</dc:format><dc:type
           rdf:resource="http://purl.org/dc/dcmitype/StillImage" /><dc:title></dc:title></cc:Work></rdf:RDF></metadata><defs
     id="defs6"><clipPath
       id="clipPath18"
       clipPathUnits="userSpaceOnUse"><path
         id="path20"
         d="M 0,275 800,275 800,0 0,0 0,275 Z" /></clipPath></defs><g
     transform="matrix(1.25,0,0,-1.25,0,343.75)"
     id="g10"><g
       id="g8142"><path
         d="M 0,0 800,0 800,275 0,275 0,0 Z"
         style="fill:#2b3e50;fill-opacity:1;fill-rule:nonzero;stroke:none"
         id="path12" /><g
         id="g14"><g
           id="g16"
           clip-path="url(#clipPath18)"><g
             id="g22"
             transform="translate(217.4883,167.0381)"><path
               d="m 0,0 25.479,0 0,-26.05 12.888,0 c 5.949,0 12.067,1.061 17.703,2.971 2.77,0.937 5.873,2.243 8.608,3.885 -3.598,4.698 -5.434,10.629 -5.975,16.472 -0.732,7.951 0.867,18.301 6.25,24.523 l 2.678,3.098 3.191,-2.566 c 8.039,-6.459 14.795,-15.478 15.987,-25.762 9.677,2.845 21.035,2.172 29.568,-2.75 l 3.496,-2.017 -1.842,-3.596 c -7.213,-14.076 -22.291,-18.44 -37.035,-17.666 -22.062,-54.949 -70.092,-80.964 -128.328,-80.964 -30.089,0 -57.692,11.248 -73.409,37.937 l -0.26,0.44 -2.287,4.657 c -5.313,11.752 -7.08,24.626 -5.881,37.487 l 0.357,3.851 21.791,0 0,26.05 25.481,0 0,25.478 50.96,0 0,25.484 30.58,0 L 0,0 Z"
               style="fill:#394d54;fill-opacity:1;fill-rule:evenodd;stroke:none"
               id="path24" /></g><g
             id="g26"
             transform="translate(300.0449,157.3984)"><path
               d="m 0,0 c 1.709,13.281 -8.229,23.711 -14.393,28.661 -7.103,-8.209 -8.207,-29.726 2.934,-38.787 -6.217,-5.522 -19.316,-10.53 -32.73,-10.53 l -163.31,0 c -1.303,-14.002 1.156,-26.898 6.771,-37.94 l 1.858,-3.396 c 1.176,-1.999 2.461,-3.926 3.851,-5.778 6.713,-0.431 12.903,-0.579 18.565,-0.458 l 0.002,0 c 11.129,0.249 20.211,1.561 27.095,3.95 1.025,0.355 2.138,-0.192 2.494,-1.214 0.355,-1.022 -0.188,-2.142 -1.209,-2.494 -0.914,-0.319 -1.871,-0.612 -2.856,-0.899 l -0.006,0 c -5.417,-1.547 -11.229,-2.589 -18.725,-3.048 0.441,-0.008 -0.461,-0.069 -0.467,-0.069 -0.254,-0.017 -0.574,-0.051 -0.832,-0.064 -2.951,-0.169 -6.135,-0.205 -9.391,-0.205 -3.562,0 -7.07,0.07 -10.99,0.269 l -0.101,-0.064 c 13.609,-15.296 34.882,-24.466 61.551,-24.466 56.44,0 104.315,25.016 125.512,81.19 15.041,-1.544 29.498,2.289 36.074,15.126 C 21.223,5.826 7.754,3.899 0,0"
               style="fill:#00aada;fill-opacity:1;fill-rule:nonzero;stroke:none"
               id="path28" /></g><g
             id="g30"
             transform="translate(300.0449,157.3984)"><path
               d="m 0,0 c 1.709,13.281 -8.229,23.711 -14.393,28.661 -7.103,-8.209 -8.207,-29.726 2.934,-38.787 -6.217,-5.522 -19.316,-10.53 -32.73,-10.53 l -153.638,0 c -0.668,-21.444 7.291,-37.725 21.373,-47.572 l 0.002,0 c 11.129,0.249 20.211,1.561 27.095,3.95 1.025,0.355 2.138,-0.192 2.494,-1.214 0.355,-1.022 -0.188,-2.142 -1.209,-2.494 -0.914,-0.319 -1.871,-0.612 -2.856,-0.899 l -0.006,0 c -5.417,-1.547 -11.727,-2.719 -19.223,-3.181 -0.006,0 -0.184,0.172 -0.184,0.172 19.206,-9.851 47.058,-9.818 78.993,2.447 35.805,13.755 69.121,39.963 92.368,69.936 C 0.672,0.327 0.328,0.169 0,0"
               style="fill:#24b8eb;fill-opacity:1;fill-rule:nonzero;stroke:none"
               id="path32" /></g><g
             id="g34"
             transform="translate(92.8545,119.7285)"><path
               d="m 0,0 c 1.012,-7.504 3.207,-14.527 6.463,-20.926 l 1.857,-3.396 c 1.176,-1.999 2.461,-3.926 3.852,-5.778 6.713,-0.431 12.902,-0.579 18.566,-0.458 11.129,0.249 20.211,1.561 27.095,3.95 1.025,0.355 2.139,-0.192 2.494,-1.214 0.356,-1.022 -0.187,-2.142 -1.209,-2.494 -0.914,-0.319 -1.871,-0.612 -2.855,-0.899 l -0.006,0 c -5.417,-1.547 -11.696,-2.654 -19.193,-3.117 -0.253,-0.017 -0.703,-0.02 -0.964,-0.032 -2.948,-0.167 -6.102,-0.269 -9.356,-0.269 -3.562,0 -7.205,0.068 -11.127,0.269 13.61,-15.296 35.016,-24.498 61.685,-24.498 48.32,0 90.355,18.339 114.756,58.862 L 0,0 Z"
               style="fill:#008bb8;fill-opacity:1;fill-rule:nonzero;stroke:none"
               id="path36" /></g><g
             id="g38"
             transform="translate(103.6885,119.7285)"><path
               d="m 0,0 c 2.887,-13.174 9.83,-23.511 19.904,-30.558 11.129,0.249 20.211,1.561 27.095,3.95 1.025,0.355 2.139,-0.192 2.494,-1.214 0.356,-1.022 -0.187,-2.142 -1.209,-2.494 -0.914,-0.319 -1.871,-0.612 -2.855,-0.899 l -0.006,0 c -5.417,-1.547 -11.827,-2.654 -19.325,-3.117 19.206,-9.853 46.979,-9.71 78.911,2.555 19.314,7.424 37.904,18.469 54.586,31.777 L 0,0 Z"
               style="fill:#039bc6;fill-opacity:1;fill-rule:nonzero;stroke:none"
               id="path40" /></g><path
             d="m 114.714,162.791 22.082,0 0,-22.085 -22.082,0 0,22.085 z m 1.838,-1.842 1.744,0 0,-18.405 -1.744,0 0,18.405 z m 3.275,0 1.814,0 0,-18.405 -1.814,0 0,18.405 z m 3.348,0 1.813,0 0,-18.405 -1.813,0 0,18.405 z m 3.346,0 1.814,0 0,-18.405 -1.814,0 0,18.405 z m 3.345,0 1.813,0 0,-18.405 -1.813,0 0,18.405 z m 3.346,0 1.746,0 0,-18.405 -1.746,0 0,18.405 z"
             style="fill:#00acd3;fill-opacity:1;fill-rule:evenodd;stroke:none"
             id="path42" /><path
             d="m 140.192,188.271 22.085,0 0,-22.084 -22.085,0 0,22.084 z m 1.842,-1.839 1.742,0 0,-18.403 -1.742,0 0,18.403 z m 3.279,0 1.811,0 0,-18.403 -1.811,0 0,18.403 z m 3.339,0 1.814,0 0,-18.403 -1.814,0 0,18.403 z m 3.35,0 1.811,0 0,-18.403 -1.811,0 0,18.403 z m 3.348,0 1.813,0 0,-18.403 -1.813,0 0,18.403 z m 3.343,0 1.746,0 0,-18.403 -1.746,0 0,18.403 z"
             style="fill:#00acd3;fill-opacity:1;fill-rule:evenodd;stroke:none"
             id="path44" /><path
             d="m 140.192,162.791 22.085,0 0,-22.085 -22.085,0 0,22.085 z m 1.842,-1.842 1.742,0 0,-18.405 -1.742,0 0,18.405 z m 3.279,0 1.811,0 0,-18.405 -1.811,0 0,18.405 z m 3.339,0 1.814,0 0,-18.405 -1.814,0 0,18.405 z m 3.35,0 1.811,0 0,-18.405 -1.811,0 0,18.405 z m 3.348,0 1.813,0 0,-18.405 -1.813,0 0,18.405 z m 3.343,0 1.746,0 0,-18.405 -1.746,0 0,18.405 z"
             style="fill:#20c2ef;fill-opacity:1;fill-rule:evenodd;stroke:none"
             id="path46" /><path
             d="m 165.676,162.791 22.086,0 0,-22.085 -22.086,0 0,22.085 z m 1.838,-1.842 1.744,0 0,-18.405 -1.744,0 0,18.405 z m 3.277,0 1.813,0 0,-18.405 -1.813,0 0,18.405 z m 3.35,0 1.811,0 0,-18.405 -1.811,0 0,18.405 z m 3.345,0 1.811,0 0,-18.405 -1.811,0 0,18.405 z m 3.342,0 1.814,0 0,-18.405 -1.814,0 0,18.405 z m 3.35,0 1.742,0 0,-18.405 -1.742,0 0,18.405 z"
             style="fill:#00acd3;fill-opacity:1;fill-rule:evenodd;stroke:none"
             id="path48" /><path
             d="m 165.676,188.271 22.086,0 0,-22.084 -22.086,0 0,22.084 z m 1.838,-1.839 1.744,0 0,-18.403 -1.744,0 0,18.403 z m 3.277,0 1.813,0 0,-18.403 -1.813,0 0,18.403 z m 3.35,0 1.811,0 0,-18.403 -1.811,0 0,18.403 z m 3.345,0 1.811,0 0,-18.403 -1.811,0 0,18.403 z m 3.342,0 1.814,0 0,-18.403 -1.814,0 0,18.403 z m 3.35,0 1.742,0 0,-18.403 -1.742,0 0,18.403 z"
             style="fill:#20c2ef;fill-opacity:1;fill-rule:evenodd;stroke:none"
             id="path50" /><path
             d="m 191.158,162.791 22.084,0 0,-22.085 -22.084,0 0,22.085 z m 1.838,-1.842 1.746,0 0,-18.405 -1.746,0 0,18.405 z m 3.279,0 1.813,0 0,-18.405 -1.813,0 0,18.405 z m 3.346,0 1.813,0 0,-18.405 -1.813,0 0,18.405 z m 3.346,0 1.813,0 0,-18.405 -1.813,0 0,18.405 z m 3.346,0 1.814,0 0,-18.405 -1.814,0 0,18.405 z m 3.345,0 1.746,0 0,-18.405 -1.746,0 0,18.405 z"
             style="fill:#20c2ef;fill-opacity:1;fill-rule:evenodd;stroke:none"
             id="path52" /><path
             d="m 191.158,188.271 22.084,0 0,-22.084 -22.084,0 0,22.084 z m 1.838,-1.839 1.746,0 0,-18.403 -1.746,0 0,18.403 z m 3.279,0 1.813,0 0,-18.403 -1.813,0 0,18.403 z m 3.346,0 1.813,0 0,-18.403 -1.813,0 0,18.403 z m 3.346,0 1.813,0 0,-18.403 -1.813,0 0,18.403 z m 3.346,0 1.814,0 0,-18.403 -1.814,0 0,18.403 z m 3.345,0 1.746,0 0,-18.403 -1.746,0 0,18.403 z"
             style="fill:#00acd3;fill-opacity:1;fill-rule:evenodd;stroke:none"
             id="path54" /><path
             d="m 191.158,213.754 22.084,0 0,-22.085 -22.084,0 0,22.085 z m 1.838,-1.838 1.746,0 0,-18.406 -1.746,0 0,18.406 z m 3.279,0 1.813,0 0,-18.406 -1.813,0 0,18.406 z m 3.346,0 1.813,0 0,-18.406 -1.813,0 0,18.406 z m 3.346,0 1.813,0 0,-18.406 -1.813,0 0,18.406 z m 3.346,0 1.814,0 0,-18.406 -1.814,0 0,18.406 z m 3.345,0 1.746,0 0,-18.406 -1.746,0 0,18.406 z"
             style="fill:#20c2ef;fill-opacity:1;fill-rule:evenodd;stroke:none"
             id="path56" /><path
             d="m 216.639,162.791 22.082,0 0,-22.085 -22.082,0 0,22.085 z m 1.84,-1.842 1.742,0 0,-18.405 -1.742,0 0,18.405 z m 3.277,0 1.811,0 0,-18.405 -1.811,0 0,18.405 z m 3.346,0 1.813,0 0,-18.405 -1.813,0 0,18.405 z m 3.343,0 1.813,0 0,-18.405 -1.813,0 0,18.405 z m 3.35,0 1.811,0 0,-18.405 -1.811,0 0,18.405 z m 3.346,0 1.742,0 0,-18.405 -1.742,0 0,18.405 z"
             style="fill:#00acd3;fill-opacity:1;fill-rule:evenodd;stroke:none"
             id="path58" /><g
             id="g60"
             transform="translate(160.8965,104.8984)"><path
               d="m 0,0 c 3.365,0 6.094,-2.728 6.094,-6.09 0,-3.368 -2.729,-6.093 -6.094,-6.093 -3.367,0 -6.092,2.725 -6.092,6.093 C -6.092,-2.728 -3.367,0 0,0"
               style="fill:#d4edf1;fill-opacity:1;fill-rule:evenodd;stroke:none"
               id="path62" /></g><g
             id="g64"
             transform="translate(160.8965,103.1748)"><path
               d="M 0,0 C 0.557,0 1.088,-0.109 1.576,-0.298 1.047,-0.604 0.689,-1.183 0.689,-1.84 c 0,-0.984 0.795,-1.78 1.78,-1.78 0.674,0 1.26,0.371 1.56,0.928 0.215,-0.517 0.332,-1.08 0.332,-1.674 0,-2.41 -1.953,-4.366 -4.361,-4.366 -2.41,0 -4.365,1.956 -4.365,4.366 C -4.365,-1.959 -2.41,0 0,0"
               style="fill:#394d54;fill-opacity:1;fill-rule:evenodd;stroke:none"
               id="path66" /></g><g
             id="g68"
             transform="translate(53.1318,117.5264)"><path
               d="m 0,0 133.458,0 16.504,0 133.455,0 C 277.243,1.566 263.89,3.679 266.095,11.767 254.872,-1.219 227.81,2.657 220.981,9.06 c -7.603,-11.032 -51.878,-6.838 -54.966,1.756 -9.534,-11.19 -39.078,-11.19 -48.616,0 C 114.312,2.222 70.041,-1.972 62.436,9.06 55.604,2.657 28.545,-1.219 17.324,11.767 19.525,3.679 6.172,1.566 0,0"
               style="fill:#394d54;fill-opacity:1;fill-rule:evenodd;stroke:none"
               id="path70" /></g><g
             id="g72"
             transform="translate(177.0938,60.9951)"><path
               d="m 0,0 c -15.09,7.161 -23.373,16.891 -27.982,27.519 -5.603,-1.6 -12.339,-2.622 -20.167,-3.062 -2.952,-0.167 -6.051,-0.248 -9.307,-0.248 -3.754,0 -7.707,0.112 -11.856,0.331 13.836,-13.83 30.856,-24.476 62.374,-24.669 2.325,0 4.639,0.042 6.938,0.129"
               style="fill:#bfdbe0;fill-opacity:1;fill-rule:nonzero;stroke:none"
               id="path74" /></g><g
             id="g76"
             transform="translate(154.7168,78.71)"><path
               d="M 0,0 C -2.088,2.833 -4.111,6.395 -5.6,9.804 -11.208,8.204 -17.944,7.183 -25.772,6.742 -20.397,3.823 -12.704,1.121 0,0"
               style="fill:#d4edf1;fill-opacity:1;fill-rule:nonzero;stroke:none"
               id="path78" /></g><g
             id="g80"
             transform="translate(405.8926,146.7617)"><path
               d="m 0,0 0,24.805 c 0,3.259 2.035,5.882 5.41,5.882 l 0.934,0 c 3.375,0 5.402,-2.623 5.402,-5.882 l 0,-52.223 c 0,-12.733 -6.293,-22.866 -17.254,-29.324 -5.086,-2.987 -10.705,-4.524 -16.597,-4.524 l -2.331,0 c -12.734,0 -22.855,6.297 -29.318,17.254 -3.002,5.086 -4.527,10.697 -4.527,16.594 l 0,2.331 c 0,12.735 6.293,22.862 17.25,29.33 5.088,3.003 10.697,4.528 16.595,4.528 l 2.331,0 C -13.486,8.771 -6.168,5.431 0,0 m -46.535,-26.252 c 0,-9.201 4.459,-16.111 12.521,-20.526 3.258,-1.781 6.797,-2.739 10.518,-2.739 9.027,0 15.726,4.258 20.346,11.912 2.146,3.558 3.15,7.453 3.15,11.593 0,7.974 -3.777,14.197 -10.205,18.816 -3.895,2.806 -8.279,4.211 -13.065,4.211 -9.841,0 -16.923,-4.971 -21.175,-13.806 -1.436,-2.984 -2.09,-6.154 -2.09,-9.461 M 52.5,8.771 l 1.629,0 c 13.611,0 23.961,-6.603 30.521,-18.486 2.623,-4.752 4.026,-9.939 4.026,-15.372 l 0,-2.331 c 0,-12.733 -6.28,-22.883 -17.256,-29.324 -5.086,-2.981 -10.703,-4.524 -16.594,-4.524 l -2.326,0 c -12.736,0 -22.857,6.297 -29.322,17.254 -3,5.086 -4.528,10.697 -4.528,16.594 l 0,2.331 c 0,12.735 6.321,22.832 17.243,29.328 5.084,3.019 10.703,4.53 16.607,4.53 M 30.395,-26.252 c 0,-8.928 4.384,-15.496 11.929,-20.114 3.537,-2.17 7.438,-3.151 11.578,-3.151 8.821,0 15.34,4.472 19.883,11.921 2.164,3.549 3.143,7.45 3.143,11.584 0,8.307 -3.998,14.644 -10.836,19.242 -3.746,2.522 -7.916,3.785 -12.428,3.785 -9.844,0 -16.926,-4.971 -21.174,-13.806 -1.439,-2.984 -2.095,-6.154 -2.095,-9.461 m 107.113,22.329 c -1.768,0.829 -5.09,1.105 -7.006,1.178 -9.814,0.37 -16.916,-5.157 -21.084,-13.815 -1.438,-2.985 -2.09,-6.148 -2.09,-9.452 0,-10.063 5.279,-17.107 14.264,-21.402 3.279,-1.565 7.513,-1.863 11.099,-1.863 3.155,0 7.612,1.93 10.411,3.26 l 0.484,0.228 2.17,0 0.24,-0.047 c 2.676,-0.558 4.69,-2.25 4.69,-5.123 l 0,-1.165 c 0,-7.149 -13.073,-8.791 -18.061,-9.135 -17.6,-1.22 -30.762,8.446 -35.783,25.234 -0.873,2.918 -1.264,5.812 -1.264,8.848 l 0,2.328 c 0,12.737 6.318,22.828 17.246,29.318 5.086,3.017 10.701,4.532 16.604,4.532 l 2.328,0 c 6.26,0 12.029,-1.777 17.197,-5.31 l 0.428,-0.293 0.264,-0.439 c 0.558,-0.927 1.041,-1.998 1.041,-3.1 l 0,-1.163 c 0,-2.999 -2.245,-4.609 -4.954,-5.132 l -0.222,-0.037 -0.694,0 c -1.753,0 -5.738,1.812 -7.308,2.55 m 38.109,-7.956 c 4.561,4.57 9.143,9.129 13.774,13.624 1.289,1.253 6.175,6.56 8.097,6.56 l 2.108,0 0.236,-0.051 c 2.682,-0.556 4.691,-2.252 4.691,-5.131 l 0,-1.166 c 0,-1.963 -2.302,-4.247 -3.57,-5.591 -2.701,-2.86 -5.541,-5.627 -8.305,-8.43 l -14.189,-14.405 c 6.107,-6.126 12.213,-12.256 18.275,-18.427 1.676,-1.707 3.354,-3.417 5.006,-5.149 0.58,-0.61 1.446,-1.377 1.934,-2.226 0.525,-0.8 0.849,-1.7 0.849,-2.661 l 0,-1.209 -0.07,-0.281 c -0.66,-2.68 -2.361,-4.844 -5.332,-4.844 l -0.933,0 c -1.944,0 -4.139,2.203 -5.469,3.456 -2.742,2.587 -5.395,5.308 -8.086,7.949 l -9.016,8.853 0,-14.152 c 0,-3.254 -2.041,-5.874 -5.412,-5.874 l -0.928,0 c -3.371,0 -5.406,2.62 -5.406,5.874 l 0,79.738 c 0,3.261 2.035,5.87 5.406,5.87 l 0.928,0 c 3.371,0 5.412,-2.609 5.412,-5.87 l 0,-36.457 z m 146.412,20.184 1.164,0 c 3.524,0 5.877,-2.376 5.877,-5.879 0,-4.864 -4.648,-6.11 -8.67,-6.11 -5.279,0 -10.312,-3.191 -13.953,-6.771 -4.535,-4.476 -6.519,-10.197 -6.519,-16.494 l 0,-28.438 c 0,-3.262 -2.037,-5.879 -5.408,-5.879 l -0.926,0 c -3.379,0 -5.414,2.617 -5.414,5.879 l 0,30.071 c 0,11.548 5.621,20.97 14.992,27.587 5.599,3.95 12.004,6.034 18.857,6.034 m -83.494,-56.36 c 4.274,-1.494 9.149,-1.281 13.535,-0.516 2.241,0.953 7.981,3.455 10.09,3.092 l 0.332,-0.058 0.301,-0.149 c 1.287,-0.626 2.518,-1.509 3.176,-2.819 1.541,-3.074 0.799,-6.163 -2.219,-7.905 l -1.006,-0.585 c -11.142,-6.432 -22.994,-5.539 -34.103,0.468 -5.311,2.87 -9.371,7.134 -12.37,12.331 l -0.701,1.212 c -7.154,12.386 -6.187,25.42 1.881,37.201 2.783,4.071 6.422,7.219 10.678,9.678 l 1.611,0.929 c 10.496,6.058 21.742,5.645 32.522,0.327 5.793,-2.859 10.486,-7.122 13.72,-12.724 l 0.584,-1.007 c 2.35,-4.078 -0.695,-7.625 -3.837,-10.052 -3.649,-2.81 -7.331,-6.198 -10.827,-9.215 -7.795,-6.729 -15.574,-13.474 -23.367,-20.208 m -10.09,7.084 c 8.723,7.477 17.44,14.957 26.133,22.465 2.971,2.561 6.229,5.217 9.18,7.915 -2.367,2.977 -6.319,5.128 -9.676,6.408 -6.775,2.581 -13.455,1.712 -19.67,-1.873 -8.133,-4.694 -11.601,-12.175 -11.297,-21.482 0.123,-3.663 1.108,-7.194 3.055,-10.315 0.684,-1.099 1.451,-2.132 2.275,-3.118"
               style="fill:#e7e7e7;fill-opacity:1;fill-rule:evenodd;stroke:none"
               id="path82" /></g></g></g></g></g></svg>