<?xml version="1.0" encoding="UTF-8" standalone="no"?>
<!-- Created with Inkscape (http://www.inkscape.org/) -->

<svg
   xmlns:dc="http://purl.org/dc/elements/1.1/"
   xmlns:cc="http://creativecommons.org/ns#"
   xmlns:rdf="http://www.w3.org/1999/02/22-rdf-syntax-ns#"
   xmlns:svg="http://www.w3.org/2000/svg"
   xmlns="http://www.w3.org/2000/svg"
   xmlns:sodipodi="http://sodipodi.sourceforge.net/DTD/sodipodi-0.dtd"
   xmlns:inkscape="http://www.inkscape.org/namespaces/inkscape"
   width="49.88295mm"
   height="79.269043mm"
   viewBox="0 0 176.75062 280.87456"
   id="svg2"
   version="1.1"
   inkscape:version="0.91 r13725"
   sodipodi:docname="logo.svg">
  <defs
     id="defs4">
    <symbol
       id="layer1" />
    <symbol
       id="symbol9049"
       viewBox="0 0 1024 1024">
      <path
         id="path9055"
         class="path1"
         d="m 0,1024 512,0 L 512,0 0,0 0,1024 Z m 320,-896 128,0 0,128 -128,0 0,-128 z m 0,256 128,0 0,128 -128,0 0,-128 z m 0,256 128,0 0,128 -128,0 0,-128 z M 64,128 l 128,0 0,128 -128,0 0,-128 z m 0,256 128,0 0,128 -128,0 0,-128 z m 0,256 128,0 0,128 -128,0 0,-128 z m 512,-320 448,0 0,64 -448,0 z m 0,704 128,0 0,-256 192,0 0,256 128,0 0,-576 -448,0 z"
         inkscape:connector-curvature="0" />
    </symbol>
    <symbol
       viewBox="0 0 1024 1024"
       id="icon-cloud">
      <title
         id="title10017">cloud</title>
      <path
         id="path10019"
         d="m 768,320 c -12.128,0 -23.616,1.952 -35.264,3.552 C 688.128,244.672 605.632,192 512,192 416.384,192 333.888,245.312 289.888,323.2 278.624,321.696 267.36,320 256,320 114.88,320 0,434.816 0,576 0,717.248 114.88,832 256,832 l 512,0 c 141.12,0 256,-114.752 256,-256 0,-141.184 -114.88,-256 -256,-256 z m 0,384 -512,0 c -70.624,0 -128,-57.504 -128,-128 0,-70.176 62.112,-124.32 128.128,-126.24 0.256,30.176 5.504,59.808 16,87.808 L 392,492.704 c -5.376,-14.208 -8,-29.28 -8,-44.704 0,-70.56 57.376,-128 128,-128 41.376,0 78.88,20.512 102.368,52.448 C 552.64,419.2 512,492.64 512,576 l 128,0 c 0,-70.56 57.376,-128 128,-128 70.624,0 128,57.44 128,128 0,70.496 -57.376,128 -128,128 z"
         class="path1"
         inkscape:connector-curvature="0" />
    </symbol>
    <symbol
       viewBox="0 0 1024 1024"
       id="icon-office">
      <title
         id="title10022">office</title>
      <path
         id="path10024"
         d="m 0,1024 512,0 L 512,0 0,0 0,1024 Z m 320,-896 128,0 0,128 -128,0 0,-128 z m 0,256 128,0 0,128 -128,0 0,-128 z m 0,256 128,0 0,128 -128,0 0,-128 z M 64,128 l 128,0 0,128 -128,0 0,-128 z m 0,256 128,0 0,128 -128,0 0,-128 z m 0,256 128,0 0,128 -128,0 0,-128 z m 512,-320 448,0 0,64 -448,0 z m 0,704 128,0 0,-256 192,0 0,256 128,0 0,-576 -448,0 z"
         class="path1"
         inkscape:connector-curvature="0" />
    </symbol>
  </defs>
  <sodipodi:namedview
     id="base"
     pagecolor="#ffffff"
     bordercolor="#666666"
     borderopacity="1.0"
     inkscape:pageopacity="0.0"
     inkscape:pageshadow="2"
     inkscape:zoom="2.0122969"
     inkscape:cx="-38.337978"
     inkscape:cy="125.41866"
     inkscape:document-units="px"
     inkscape:current-layer="svg2"
     showgrid="false"
     fit-margin-top="0"
     fit-margin-left="0"
     fit-margin-right="0"
     fit-margin-bottom="0"
     inkscape:window-width="1600"
     inkscape:window-height="836"
     inkscape:window-x="0"
     inkscape:window-y="27"
     inkscape:window-maximized="1" />
  <metadata
     id="metadata7">
    <rdf:RDF>
      <cc:Work
         rdf:about="">
        <dc:format>image/svg+xml</dc:format>
        <dc:type
           rdf:resource="http://purl.org/dc/dcmitype/StillImage" />
        <dc:title></dc:title>
      </cc:Work>
    </rdf:RDF>
  </metadata>
  <g
     style="display:none"
     id="g10036"
     transform="translate(22.491613,41.4208)" />
  <g
     id="g10290"
     transform="matrix(4.7897305,0,0,4.7897305,-52.059581,-7.6293954e-6)">
    <polygon
       id="polygon10292"
       points="27.105,16.847 27.105,12.682 22.612,10.738 22.612,15.058 "
       style="fill:#de716b;fill-opacity:1" />
    <polygon
       id="polygon10294"
       points="27.105,18.792 27.105,23.109 31.593,24.901 31.593,20.736 "
       style="fill:#de716b;fill-opacity:1" />
    <polygon
       id="polygon10296"
       points="30.21,30.907 30.21,26.743 25.721,24.797 25.721,29.117 "
       style="fill:#de716b;fill-opacity:1" />
    <polygon
       id="polygon10298"
       points="22.612,33.023 22.612,37.342 27.105,39.132 27.105,34.967 "
       style="fill:#de716b;fill-opacity:1" />
    <polygon
       id="polygon10300"
       points="25.895,43.592 25.895,47.91 30.382,49.7 30.382,45.535 "
       style="fill:#de716b;fill-opacity:1" />
    <path
       id="path10302"
       d="m 40.791,21.027 -7.127,4.669 0,32.945 7.127,0 0,-34.68 4.907,2.062 0,32.618 2.073,0 0,-31.745 0,-1.282 0,-1.171 -6.98,-3.416 z m -3.972,31.536 -2.571,1.403 0,-3.623 2.571,-1.459 0,3.679 z m 0,-5.562 -2.571,1.401 0,-3.621 2.571,-1.459 0,3.679 z m 0,-5.563 -2.571,1.402 0,-3.624 2.571,-1.458 0,3.68 z m 0,-5.564 -2.571,1.402 0,-3.622 2.571,-1.46 0,3.68 z m 0,-5.563 -2.571,1.403 0,-3.625 2.571,-1.458 0,3.68 z m 2.979,20.737 -2.569,1.403 0,-3.623 2.569,-1.459 0,3.679 z m 0,-5.562 -2.569,1.4 0,-3.621 2.569,-1.46 0,3.681 z m 0,-5.565 -2.569,1.404 0,-3.624 2.569,-1.459 0,3.679 z m 0,-5.563 -2.569,1.403 0,-3.623 2.569,-1.458 0,3.678 z m 0,-5.563 -2.569,1.403 0,-3.625 2.569,-1.459 0,3.681 z"
       inkscape:connector-curvature="0"
       style="fill:#ffffff" />
    <path
       id="path10304"
       d="m 19.956,3.743 0,-3.743 -2.073,0 0,5.102 -7.014,4.6 0,48.7 10.536,0 0,-51.267 10.318,4.337 0,-3.626 -10.318,-5.051 -1.449,0.948 z m -4.427,45.677 -3.798,2.071 0,-5.354 3.798,-2.157 0,5.44 z m 0,-8.227 -3.798,2.073 0,-5.355 3.798,-2.157 0,5.439 z m 0,-8.224 -3.798,2.073 0,-5.355 3.798,-2.157 0,5.439 z m 0,-8.224 -3.798,2.072 0,-5.355 3.798,-2.158 0,5.441 z m 0,-8.224 -3.798,2.072 0,-5.355 3.798,-2.156 0,5.439 z m 4.407,30.658 -3.798,2.072 0,-5.354 3.798,-2.156 0,5.438 z m 0,-8.224 -3.798,2.07 0,-5.354 3.798,-2.157 0,5.441 z m 0,-8.225 -3.798,2.072 0,-5.355 3.798,-2.158 0,5.441 z m 0,-8.225 -3.798,2.071 0,-5.355 3.798,-2.157 0,5.441 z m 0,-8.226 -3.798,2.071 0,-5.354 3.798,-2.158 0,5.441 z"
       inkscape:connector-curvature="0"
       style="fill:#ffffff" />
  </g>
  <g
     id="g10306"
     transform="matrix(4.7897305,0,0,4.7897305,-436.92775,140.41121)" />
  <g
     id="g10308"
     transform="matrix(4.7897305,0,0,4.7897305,-436.92775,140.41121)" />
  <g
     id="g10310"
     transform="matrix(4.7897305,0,0,4.7897305,-436.92775,140.41121)" />
  <g
     id="g10312"
     transform="matrix(4.7897305,0,0,4.7897305,-436.92775,140.41121)" />
  <g
     id="g10314"
     transform="matrix(4.7897305,0,0,4.7897305,-436.92775,140.41121)" />
  <g
     id="g10316"
     transform="matrix(4.7897305,0,0,4.7897305,-436.92775,140.41121)" />
  <g
     id="g10318"
     transform="matrix(4.7897305,0,0,4.7897305,-436.92775,140.41121)" />
  <g
     id="g10320"
     transform="matrix(4.7897305,0,0,4.7897305,-436.92775,140.41121)" />
  <g
     id="g10322"
     transform="matrix(4.7897305,0,0,4.7897305,-436.92775,140.41121)" />
  <g
     id="g10324"
     transform="matrix(4.7897305,0,0,4.7897305,-436.92775,140.41121)" />
  <g
     id="g10326"
     transform="matrix(4.7897305,0,0,4.7897305,-436.92775,140.41121)" />
  <g
     id="g10328"
     transform="matrix(4.7897305,0,0,4.7897305,-436.92775,140.41121)" />
  <g
     id="g10330"
     transform="matrix(4.7897305,0,0,4.7897305,-436.92775,140.41121)" />
  <g
     id="g10332"
     transform="matrix(4.7897305,0,0,4.7897305,-436.92775,140.41121)" />
  <g
     id="g10334"
     transform="matrix(4.7897305,0,0,4.7897305,-436.92775,140.41121)" />
</svg>
