<?xml version="1.0" encoding="UTF-8" standalone="no"?>
<!-- Created with Inkscape (http://www.inkscape.org/) -->

<svg
   xmlns:dc="http://purl.org/dc/elements/1.1/"
   xmlns:cc="http://creativecommons.org/ns#"
   xmlns:rdf="http://www.w3.org/1999/02/22-rdf-syntax-ns#"
   xmlns:svg="http://www.w3.org/2000/svg"
   xmlns="http://www.w3.org/2000/svg"
   xmlns:sodipodi="http://sodipodi.sourceforge.net/DTD/sodipodi-0.dtd"
   xmlns:inkscape="http://www.inkscape.org/namespaces/inkscape"
   id="svg2"
   version="1.1"
   inkscape:version="0.91 r13725"
   xml:space="preserve"
   width="294.07751"
   height="110.86006"
   viewBox="0 0 294.07751 110.86006"
   sodipodi:docname="nodejs.svg"><metadata
     id="metadata8"><rdf:RDF><cc:Work
         rdf:about=""><dc:format>image/svg+xml</dc:format><dc:type
           rdf:resource="http://purl.org/dc/dcmitype/StillImage" /><dc:title></dc:title></cc:Work></rdf:RDF></metadata><defs
     id="defs6" /><sodipodi:namedview
     pagecolor="#ffffff"
     bordercolor="#666666"
     borderopacity="1"
     objecttolerance="10"
     gridtolerance="10"
     guidetolerance="10"
     inkscape:pageopacity="0"
     inkscape:pageshadow="2"
     inkscape:window-width="1600"
     inkscape:window-height="836"
     id="namedview4"
     showgrid="false"
     inkscape:zoom="1.0825068"
     inkscape:cx="139.43734"
     inkscape:cy="-28.508526"
     inkscape:window-x="0"
     inkscape:window-y="27"
     inkscape:window-maximized="1"
     inkscape:current-layer="g10"
     fit-margin-top="0"
     fit-margin-left="0"
     fit-margin-right="0"
     fit-margin-bottom="0" /><g
     id="g10"
     inkscape:groupmode="layer"
     inkscape:label="ink_ext_XXXXXX"
     transform="matrix(1.25,0,0,-1.25,0,167.21075)"><path
       inkscape:connector-curvature="0"
       id="path14"
       style="fill:#2b3e50;fill-opacity:1;fill-rule:evenodd;stroke:none"
       d="m 0,45.08055 235.262,0 0,88.68805 -235.262,0 0,-88.68805 z" /><path
       inkscape:connector-curvature="0"
       id="path16"
       style="fill:#ffffff;fill-opacity:1;fill-rule:evenodd;stroke:none"
       d="m 59.1555,88.434 c 0,0.5422 -0.2856,1.0402 -0.7532,1.3086 l -12.4687,7.1758 c -0.2109,0.1242 -0.4473,0.1886 -0.6863,0.1984 -0.0215,0 -0.1118,0 -0.1289,0 -0.2383,-0.0098 -0.4746,-0.0742 -0.6887,-0.1984 L 31.9609,89.7426 C 31.4961,89.4742 31.207,88.9762 31.207,88.434 l 0.0274,-19.3219 c 0,-0.2691 0.1394,-0.5191 0.3761,-0.6512 0.2313,-0.1379 0.5172,-0.1379 0.7481,0 l 7.4102,4.2442 c 0.4683,0.2777 0.7539,0.7687 0.7539,1.3058 l 0,9.0278 c 0,0.5379 0.2847,1.0359 0.7515,1.3035 l 3.1555,1.8176 c 0.2351,0.1355 0.4922,0.2019 0.7551,0.2019 0.2566,0 0.5203,-0.0664 0.7488,-0.2019 l 3.1543,-1.8176 c 0.4668,-0.2676 0.7527,-0.7656 0.7527,-1.3035 l 0,-9.0278 c 0,-0.5371 0.2895,-1.0308 0.7551,-1.3058 l 7.4082,-4.2442 c 0.2324,-0.1379 0.5227,-0.1379 0.7527,0 0.2297,0.1321 0.3743,0.3821 0.3743,0.6512 l 0.0246,19.3219" /><path
       inkscape:connector-curvature="0"
       id="path18"
       style="fill:#ffffff;fill-opacity:1;fill-rule:evenodd;stroke:none"
       d="m 124.578,78.373 c 0,-0.1343 -0.072,-0.2589 -0.188,-0.3257 l -4.283,-2.4688 c -0.116,-0.0668 -0.26,-0.0668 -0.376,0 l -4.283,2.4688 c -0.117,0.0668 -0.188,0.1914 -0.188,0.3257 l 0,4.9454 c 0,0.1343 0.071,0.2586 0.188,0.3261 l 4.282,2.4735 c 0.117,0.0675 0.261,0.0675 0.377,0 l 4.283,-2.4735 c 0.116,-0.0675 0.188,-0.1918 0.188,-0.3261 l 0,-4.9454 z m 1.157,36.623 c -0.233,0.129 -0.518,0.127 -0.748,-0.009 -0.23,-0.135 -0.372,-0.382 -0.372,-0.649 l 0,-19.1353 c 0,-0.1882 -0.1,-0.3625 -0.263,-0.4566 -0.163,-0.0941 -0.364,-0.0941 -0.527,0 l -3.123,1.7992 c -0.466,0.2688 -1.039,0.268 -1.505,-4e-4 l -12.474,-7.1988 c -0.466,-0.2691 -0.753,-0.766 -0.753,-1.3039 l 0,-14.4004 c 0,-0.5387 0.287,-1.0359 0.753,-1.3047 l 12.473,-7.2043 c 0.466,-0.2687 1.04,-0.2687 1.507,0 l 12.475,7.2043 c 0.466,0.2688 0.753,0.766 0.753,1.3047 l 0,35.8962 c 0,0.546 -0.296,1.05 -0.773,1.316 l -7.423,4.142" /><path
       inkscape:connector-curvature="0"
       id="path20"
       style="fill:#ffffff;fill-opacity:1;fill-rule:evenodd;stroke:none"
       d="m 170.362,83.4477 c 0.464,0.2695 0.749,0.7656 0.749,1.3023 l 0,3.4898 c 0,0.5364 -0.285,1.0332 -0.75,1.3028 l -12.393,7.1957 c -0.467,0.2711 -1.042,0.2715 -1.51,0.0019 l -12.469,-7.1988 c -0.466,-0.2691 -0.753,-0.766 -0.753,-1.3043 l 0,-14.3961 c 0,-0.5422 0.291,-1.041 0.761,-1.309 l 12.392,-7.0609 c 0.457,-0.2609 1.017,-0.2633 1.477,-0.0082 l 7.495,4.166 c 0.238,0.132 0.386,0.382 0.387,0.6531 0.002,0.2719 -0.143,0.5231 -0.378,0.6578 l -12.548,7.2028 c -0.235,0.1344 -0.379,0.3836 -0.379,0.6531 l 0,4.5117 c 0,0.2692 0.144,0.5184 0.377,0.6524 l 3.906,2.2515 c 0.232,0.1344 0.519,0.1344 0.751,0 l 3.908,-2.2515 c 0.233,-0.134 0.377,-0.3832 0.377,-0.6524 l 0,-3.5496 c 0,-0.2695 0.144,-0.5187 0.377,-0.6527 0.234,-0.1348 0.521,-0.134 0.754,0.0012 l 7.469,4.3414" /><path
       inkscape:connector-curvature="0"
       id="path22"
       style="fill:#72c42d;fill-opacity:1;fill-rule:evenodd;stroke:none"
       d="m 81.8367,96.816 c 0.466,0.2688 1.0403,0.2688 1.5063,0 l 12.4718,-7.1972 c 0.4665,-0.2692 0.7536,-0.7665 0.7536,-1.3047 l 0,-14.4063 c 0,-0.5379 -0.2871,-1.0348 -0.7532,-1.3047 L 83.3434,65.4 c -0.4664,-0.2691 -1.0407,-0.2691 -1.5071,0 l -12.4691,7.2031 c -0.4656,0.2699 -0.7527,0.7668 -0.7527,1.3047 l 0,14.4067 c 0,0.5378 0.2871,1.0351 0.7531,1.3043 l 12.4691,7.1972" /><path
       inkscape:connector-curvature="0"
       id="path24"
       style="fill:#72c42d;fill-opacity:1;fill-rule:nonzero;stroke:none"
       d="m 194.578,65.1949 c -0.43,0 -0.857,0.1121 -1.233,0.3301 l -3.927,2.323 c -0.586,0.3282 -0.3,0.4442 -0.107,0.5122 0.783,0.2707 0.941,0.3339 1.776,0.807 0.087,0.0488 0.202,0.0308 0.292,-0.0223 l 3.016,-1.791 c 0.11,-0.0609 0.264,-0.0609 0.365,0 l 11.76,6.7879 c 0.11,0.0633 0.18,0.1883 0.18,0.3187 l 0,13.5723 c 0,0.1328 -0.07,0.2567 -0.182,0.3242 l -11.756,6.7821 c -0.109,0.0636 -0.253,0.0636 -0.363,0 l -11.753,-6.784 c -0.114,-0.0656 -0.186,-0.1934 -0.186,-0.3223 l 0,-13.5723 c 0,-0.1304 0.072,-0.2527 0.185,-0.3144 l 3.222,-1.8609 c 1.748,-0.8743 2.819,0.1546 2.819,1.1886 l 0,13.4008 c 0,0.1895 0.152,0.3387 0.341,0.3387 l 1.492,0 c 0.186,0 0.34,-0.1492 0.34,-0.3387 l 0,-13.4008 c 0,-2.3328 -1.27,-3.6707 -3.482,-3.6707 -0.68,0 -1.215,0 -2.709,0.736 l -3.084,1.7757 c -0.762,0.4403 -1.233,1.2641 -1.233,2.1457 l 0,13.5723 c 0,0.8817 0.471,1.7051 1.233,2.1434 l 11.761,6.7961 c 0.744,0.4207 1.733,0.4207 2.471,0 l 11.76,-6.7961 c 0.762,-0.4403 1.235,-1.2617 1.235,-2.1434 l 0,-13.5723 c 0,-0.8816 -0.473,-1.7027 -1.235,-2.1457 l -11.76,-6.7898 c -0.376,-0.218 -0.802,-0.3301 -1.238,-0.3301" /><path
       inkscape:connector-curvature="0"
       id="path26"
       style="fill:#72c42d;fill-opacity:1;fill-rule:nonzero;stroke:none"
       d="m 198.211,74.5453 c -5.147,0 -6.225,2.3625 -6.225,4.3438 0,0.1886 0.152,0.339 0.34,0.339 l 1.521,0 c 0.17,0 0.311,-0.1222 0.338,-0.2883 0.229,-1.5476 0.914,-2.3289 4.026,-2.3289 2.477,0 3.532,0.5606 3.532,1.875 0,0.7579 -0.299,1.3204 -4.149,1.6973 -3.218,0.3184 -5.208,1.0293 -5.208,3.6035 0,2.3731 2,3.7879 5.353,3.7879 3.768,0 5.632,-1.3074 5.868,-4.1133 0.009,-0.0965 -0.025,-0.1894 -0.089,-0.2617 -0.065,-0.0672 -0.155,-0.1082 -0.249,-0.1082 l -1.527,0 c -0.158,0 -0.298,0.1121 -0.33,0.2656 -0.366,1.6289 -1.257,2.1493 -3.673,2.1493 -2.705,0 -3.019,-0.9422 -3.019,-1.6485 0,-0.8555 0.371,-1.1043 4.023,-1.5879 3.614,-0.4773 5.331,-1.1543 5.331,-3.6941 0,-2.5625 -2.136,-4.0305 -5.863,-4.0305" /><path
       inkscape:connector-curvature="0"
       id="path28"
       style="fill:#72c42d;fill-opacity:1;fill-rule:evenodd;stroke:none"
       d="m 157.029,84.1219 c 0.09,0.0519 0.2,0.0519 0.289,0 l 2.394,-1.3809 c 0.089,-0.0515 0.144,-0.1469 0.144,-0.2504 l 0,-2.7636 c 0,-0.1036 -0.055,-0.1989 -0.144,-0.2504 l -2.394,-1.3809 c -0.089,-0.0519 -0.199,-0.0519 -0.289,0 l -2.391,1.3809 c -0.09,0.0515 -0.145,0.1468 -0.145,0.2504 l 0,2.7636 c 0,0.1035 0.055,0.1989 0.145,0.2504 l 2.391,1.3809" /><path
       inkscape:connector-curvature="0"
       id="path30"
       style="fill:#72c42d;fill-opacity:1;fill-rule:nonzero;stroke:none"
       d="m 214.313,93.4512 0.396,0 c 0.323,0 0.384,0.2273 0.384,0.3593 0,0.3481 -0.24,0.3481 -0.372,0.3481 l -0.408,0 0,-0.7074 z m -0.48,1.1152 0.876,0 c 0.3,0 0.888,0 0.888,-0.6719 0,-0.4679 -0.3,-0.5636 -0.481,-0.6234 0.349,-0.0242 0.372,-0.252 0.42,-0.5758 0.025,-0.2035 0.061,-0.5519 0.132,-0.6715 l -0.539,0 c -0.013,0.1196 -0.097,0.7676 -0.097,0.8032 -0.035,0.1441 -0.084,0.216 -0.263,0.216 l -0.444,0 0,-1.0192 -0.492,0 0,2.5426 z m -1.049,-1.2652 c 0,-1.0555 0.852,-1.9071 1.895,-1.9071 1.055,0 1.907,0.8696 1.907,1.9071 0,1.0551 -0.863,1.8945 -1.907,1.8945 -1.032,0 -1.895,-0.8269 -1.895,-1.8945 z m 4.167,-0.0063 c 0,-1.2472 -1.019,-2.2668 -2.266,-2.2668 -1.236,0 -2.267,1.0074 -2.267,2.2668 0,1.2832 1.056,2.2672 2.267,2.2672 1.223,0 2.266,-0.984 2.266,-2.2672" /></g></svg>